<?xml version="1.0" encoding="windows-1252"?>
<!-- Generator: Adobe Illustrator 19.0.0, SVG Export Plug-In . SVG Version: 6.00 Build 0)  -->
<svg version="1.1" id="Layer_1" xmlns="http://www.w3.org/2000/svg" xmlns:xlink="http://www.w3.org/1999/xlink" x="0px" y="0px" viewBox="0 0 511.999 511.999" style="enable-background:new 0 0 511.999 511.999;" xml:space="preserve">
<g>
	<g>
		<path d="M252.993,437.322c-5.89,0-10.667,4.775-10.667,10.667v8.818c0,5.891,4.776,10.667,10.667,10.667    c5.89,0,10.667-4.775,10.667-10.667v-8.818C263.66,442.098,258.884,437.322,252.993,437.322z"/>
	</g>
</g>
<g>
	<g>
		<path d="M444.627,272.485c0-5.891-4.777-10.667-10.667-10.667h-77.712v-53.002c28.979-0.503,56.144-12.021,76.685-32.574    c4.164-4.167,4.162-10.921-0.005-15.085c-4.165-4.163-10.918-4.162-15.085,0.004c-16.509,16.519-38.318,25.795-61.595,26.297    v-27.222c0-28.561-11.776-55.669-32.466-75.151V58.259c0-12.953-5.043-25.129-14.198-34.285l-20.85-20.85    c-4.166-4.165-10.918-4.165-15.086,0c-4.165,4.165-4.165,10.919,0,15.085l20.851,20.85c5.127,5.127,7.95,11.946,7.95,19.2v11.366    c-15.07-8.224-32.067-12.643-49.455-12.643c-17.405,0-34.418,4.426-49.503,12.662V58.259c0-7.141,2.9-14.141,7.948-19.198    l20.778-20.766c4.166-4.164,4.169-10.918,0.004-15.085c-4.165-4.166-10.919-4.17-15.086-0.004l-20.786,20.775    c-9.152,9.167-14.192,21.341-14.192,34.278v26.855c-20.668,19.482-32.43,46.579-32.43,75.123v30.513    c-21.225-0.645-41.086-9.188-56.161-24.265c-4.166-4.165-10.918-4.165-15.086,0c-4.165,4.165-4.165,10.919,0,15.085    c19.107,19.106,44.321,29.894,71.247,30.544v49.871H78.039c-5.89,0-10.667,4.776-10.667,10.667s4.777,10.667,10.667,10.667h71.687    v56.46c-26.918,0.651-52.132,11.442-71.247,30.556c-4.165,4.165-4.165,10.919,0,15.085c2.083,2.083,4.813,3.124,7.542,3.124    s5.459-1.042,7.542-3.124c15.084-15.084,34.944-23.631,56.161-24.276v5.503c0,39.938,17.135,77.604,49.555,108.927    c24.119,23.303,48.103,34.9,49.112,35.382c1.454,0.694,3.026,1.042,4.599,1.042s3.145-0.348,4.601-1.043    c1.008-0.482,24.989-12.078,49.106-35.382c32.415-31.323,49.548-68.989,49.548-108.927v-2.199    c23.284,0.501,45.094,9.773,61.595,26.285c2.083,2.084,4.814,3.126,7.544,3.126c2.729,0,5.457-1.041,7.539-3.122    c4.167-4.164,4.17-10.917,0.005-15.085c-20.532-20.545-47.698-32.059-76.685-32.562v-59.94h77.714v0.003    C439.85,283.152,444.627,278.376,444.627,272.485z M171.06,160.238c0-23.978,10.46-46.675,28.695-62.272    c14.818-12.671,33.724-19.649,53.237-19.649c19.46,0,38.313,6.945,53.103,19.554c0.108,0.094,0.212,0.19,0.323,0.279    c18.111,15.589,28.494,38.198,28.494,62.089v28.605H171.06V160.238z M334.913,272.485v81.249v12.914    c0,34.306-14.326,65.644-42.58,93.139c-15.744,15.322-31.718,25.188-39.342,29.469c-17.909-10.066-81.933-51.068-81.933-122.609    v-16.232v-77.762v-62.477h71.267v198.533c0,5.891,4.777,10.667,10.667,10.667c5.89,0,10.667-4.775,10.667-10.667V210.176h71.254    V272.485z"/>
	</g>
</g>
<g>
</g>
<g>
</g>
<g>
</g>
<g>
</g>
<g>
</g>
<g>
</g>
<g>
</g>
<g>
</g>
<g>
</g>
<g>
</g>
<g>
</g>
<g>
</g>
<g>
</g>
<g>
</g>
<g>
</g>
</svg>